<svg width="16" height="16" viewBox="0 0 16 16" fill="none" xmlns="http://www.w3.org/2000/svg">
<path d="M7.9999 4C6.4829 4 5.2969 5.423 5.7069 7.008C5.9139 7.808 6.5679 8.462 7.3679 8.669C8.9519 9.078 10.3759 7.893 10.3759 6.376C10.3749 5.063 9.3119 4 7.9999 4Z" fill="context-fill"/>
<path d="M8 1.5C11.584 1.5 14.5 4.416 14.5 8C14.5 11.584 11.584 14.5 8 14.5C4.416 14.5 1.5 11.584 1.5 8C1.5 4.416 4.416 1.5 8 1.5ZM8 0C3.582 0 0 3.582 0 8C0 12.418 3.582 16 8 16C12.418 16 16 12.418 16 8C16 3.582 12.418 0 8 0Z" fill="context-fill"/>
<path d="M8.00001 13.5C9.96901 13.5 11.695 12.456 12.667 10.897C12.308 10.357 11.696 10 11 10H5.00001C4.30401 10 3.69201 10.357 3.33301 10.897C4.30501 12.456 6.03101 13.5 8.00001 13.5Z" fill="context-fill"/>
</svg>
